<?xml version="1.0" standalone="no"?>
<!DOCTYPE svg PUBLIC "-//W3C//DTD SVG 20010904//EN"
 "http://www.w3.org/TR/2001/REC-SVG-20010904/DTD/svg10.dtd">
<svg version="1.0" xmlns="http://www.w3.org/2000/svg"
 width="512.000000pt" height="512.000000pt" viewBox="0 0 512.000000 512.000000"
 preserveAspectRatio="xMidYMid meet">
<metadata>
Created by potrace 1.11, written by Peter Selinger 2001-2013
</metadata>
<g transform="translate(0.000000,512.000000) scale(0.100000,-0.100000)"
fill="#000000" stroke="none">
<path d="M2378 5116 c-1 -2 -34 -6 -73 -9 -164 -15 -437 -75 -585 -130 -156
-59 -192 -74 -315 -137 -188 -95 -343 -198 -504 -334 -77 -66 -263 -256 -331
-340 -223 -275 -425 -680 -495 -994 -54 -240 -67 -347 -70 -567 -2 -206 3
-288 31 -460 67 -422 255 -841 530 -1186 86 -107 284 -305 394 -393 326 -262
726 -447 1127 -521 276 -51 618 -55 883 -11 454 74 913 288 1250 581 78 67
261 255 322 330 278 341 487 802 544 1205 2 19 6 44 9 55 19 94 27 456 13 605
-7 76 -46 308 -53 320 -2 4 -6 19 -9 34 -3 15 -17 69 -32 119 -95 327 -290
685 -509 937 -39 45 -240 246 -285 285 -255 222 -616 417 -953 514 -117 34
-277 67 -369 77 -35 3 -67 9 -72 12 -10 5 -441 13 -448 8z m307 -430 c66 -3
129 -7 140 -9 11 -2 41 -7 66 -11 164 -24 328 -71 499 -143 450 -191 825 -537
1060 -978 50 -95 116 -255 149 -362 25 -82 39 -138 66 -273 1 -8 6 -44 10 -80
4 -36 9 -74 11 -85 5 -26 5 -334 0 -360 -2 -11 -7 -51 -11 -90 -13 -134 -63
-334 -119 -483 -210 -549 -631 -987 -1169 -1216 -95 -40 -268 -98 -331 -110
-12 -2 -42 -9 -69 -15 -26 -6 -64 -13 -85 -16 -63 -8 -126 -17 -152 -21 -32
-5 -339 -6 -365 0 -11 2 -51 7 -90 11 -215 21 -503 112 -730 230 -98 51 -284
176 -369 248 -68 57 -201 189 -257 253 -225 261 -402 623 -468 959 -18 89 -24
128 -37 240 -14 117 -1 404 26 555 17 99 21 114 56 233 84 287 223 540 434
792 32 38 174 180 220 220 285 248 679 432 1050 491 19 3 46 7 60 10 14 2 72
7 130 10 58 4 106 8 108 9 1 1 12 1 25 -1 12 -2 76 -5 142 -8z"/>
<path d="M2309 4456 c-2 -2 -25 -7 -51 -10 -194 -26 -510 -148 -703 -271 -416
-266 -726 -687 -845 -1150 -46 -180 -49 -218 -46 -490 2 -143 6 -271 10 -285
3 -14 9 -38 12 -55 34 -193 153 -478 276 -666 194 -294 467 -535 772 -683 122
-59 313 -130 384 -142 15 -3 56 -12 92 -21 86 -21 496 -30 613 -13 307 43 616
174 876 369 41 30 84 65 96 76 11 11 41 38 66 61 288 266 497 643 573 1033 24
120 25 145 22 377 -1 137 -6 263 -10 279 -3 17 -13 62 -22 100 -42 191 -120
384 -231 568 -50 83 -91 146 -103 157 -3 3 -21 25 -40 50 -71 93 -239 255
-350 339 -204 154 -402 252 -650 325 -152 44 -201 49 -471 53 -146 2 -267 2
-270 -1z m1315 -824 c25 -24 44 -63 40 -87 -3 -17 -50 -124 -211 -475 -14 -30
-44 -98 -68 -150 -52 -115 -84 -186 -120 -265 -15 -33 -51 -112 -80 -175 -158
-347 -184 -400 -194 -400 -5 0 -47 -17 -93 -39 -45 -21 -274 -125 -508 -231
-234 -106 -459 -208 -500 -227 -41 -19 -120 -55 -175 -80 -55 -25 -104 -48
-110 -53 -38 -29 -114 -11 -148 36 -38 52 -56 7 382 969 49 108 66 144 86 190
13 28 43 93 67 145 24 52 55 121 69 154 24 58 25 58 114 101 76 36 243 112
450 205 28 13 92 42 143 66 52 24 95 44 97 44 3 0 54 23 220 100 33 15 83 38
110 50 28 12 104 47 170 78 164 75 184 82 215 70 14 -5 33 -17 44 -26z"/>
<path d="M2498 2768 c-20 -5 -54 -25 -76 -43 -148 -127 -64 -361 133 -374 57
-3 142 42 179 96 54 78 46 186 -19 261 -45 53 -144 80 -217 60z"/>
</g>
</svg>
