<?xml version="1.0" encoding="UTF-8"?>
<svg width="512px" height="512px" viewBox="0 0 512 512" version="1.1" xmlns="http://www.w3.org/2000/svg" xmlns:xlink="http://www.w3.org/1999/xlink">
    <g id="Page-1" stroke="none" stroke-width="1" fill="none" fill-rule="evenodd">
        <g id="compass-(1)" fill="#000000" fill-rule="nonzero">
            <path d="M256,0 C115.2,0 0,115.2 0,256 C0,396.8 115.2,512 256,512 C396.8,512 512,396.8 512,256 C512,115.2 396.8,0 256,0 Z M256,469.333 C138.667,469.333 42.667,373.333 42.667,256 C42.667,138.667 138.667,42.667 256,42.667 C373.333,42.667 469.333,138.667 469.333,256 C469.333,373.333 373.333,469.333 256,469.333 Z" id="Shape"></path>
            <circle id="Oval" cx="255.817" cy="255.552" r="21.333"></circle>
            <path d="M445.867,234.667 C435.2,147.2 364.8,76.8 277.333,66.133 L234.667,66.133 C147.2,76.8 76.8,147.2 66.133,234.667 L66.133,277.334 C76.8,364.8 147.2,435.2 234.667,445.867 L277.334,445.867 C364.8,435.2 435.2,364.8 445.867,277.333 L445.867,234.667 Z M364.8,162.133 L300.8,302.933 L160,366.933 C151.467,373.333 138.667,360.533 145.067,352 L209.067,211.2 L349.867,147.2 C358.4,140.8 371.2,153.6 364.8,162.133 Z" id="Shape"></path>
        </g>
    </g>
</svg>